<?xml version="1.0" encoding="UTF-8" standalone="no"?>
<!-- Created with Inkscape (http://www.inkscape.org/) -->

<svg
   xmlns:dc="http://purl.org/dc/elements/1.1/"
   xmlns:cc="http://creativecommons.org/ns#"
   xmlns:rdf="http://www.w3.org/1999/02/22-rdf-syntax-ns#"
   xmlns:svg="http://www.w3.org/2000/svg"
   xmlns="http://www.w3.org/2000/svg"
   xmlns:sodipodi="http://sodipodi.sourceforge.net/DTD/sodipodi-0.dtd"
   xmlns:inkscape="http://www.inkscape.org/namespaces/inkscape"
   width="160"
   height="90"
   viewBox="0 0 42.333334 23.8125"
   version="1.1"
   id="svg8"
   inkscape:version="0.92.2 (5c3e80d, 2017-08-06)"
   sodipodi:docname="atomfeed.svg">
  <defs
     id="defs2" />
  <sodipodi:namedview
     id="base"
     pagecolor="#ffffff"
     bordercolor="#666666"
     borderopacity="1.0"
     inkscape:pageopacity="0.0"
     inkscape:pageshadow="2"
     inkscape:zoom="3.6203867"
     inkscape:cx="79.754483"
     inkscape:cy="66.342282"
     inkscape:document-units="mm"
     inkscape:current-layer="layer1"
     showgrid="false"
     width="160mm"
     units="px"
     inkscape:window-width="1400"
     inkscape:window-height="981"
     inkscape:window-x="0"
     inkscape:window-y="32"
     inkscape:window-maximized="1" />
  <metadata
     id="metadata5">
    <rdf:RDF>
      <cc:Work
         rdf:about="">
        <dc:format>image/svg+xml</dc:format>
        <dc:type
           rdf:resource="http://purl.org/dc/dcmitype/StillImage" />
        <dc:title></dc:title>
      </cc:Work>
    </rdf:RDF>
  </metadata>
  <g
     inkscape:label="Layer 1"
     inkscape:groupmode="layer"
     id="layer1"
     transform="translate(0,-273.1875)">
    <text
       id="text3805"
       y="281.85751"
       x="18.084482"
       style="font-style:normal;font-variant:normal;font-weight:normal;font-stretch:normal;font-size:3.17499995px;line-height:1.25;font-family:Ubuntu;-inkscape-font-specification:'Ubuntu, Normal';font-variant-ligatures:normal;font-variant-caps:normal;font-variant-numeric:normal;font-feature-settings:normal;text-align:start;letter-spacing:0px;word-spacing:0px;writing-mode:lr-tb;text-anchor:start;fill:#000000;fill-opacity:1;stroke:none;stroke-width:0.12170606"
       xml:space="preserve"><tspan
         style="font-style:normal;font-variant:normal;font-weight:normal;font-stretch:normal;font-size:3.17499995px;font-family:Ubuntu;-inkscape-font-specification:'Ubuntu, Normal';font-variant-ligatures:normal;font-variant-caps:normal;font-variant-numeric:normal;font-feature-settings:normal;text-align:start;writing-mode:lr-tb;text-anchor:start;fill:#ffffff;stroke-width:0.12170606"
         y="281.85751"
         x="18.084482"
         sodipodi:role="line"
         id="tspan3807">XML</tspan></text>
    <text
       xml:space="preserve"
       style="font-style:normal;font-weight:normal;font-size:10.58333302px;line-height:1.25;font-family:sans-serif;letter-spacing:0px;word-spacing:0px;fill:#000000;fill-opacity:1;stroke:none;stroke-width:0.26458332"
       x="2.1193638"
       y="291.95737"
       id="text3811"><tspan
         sodipodi:role="line"
         id="tspan3809"
         x="2.1193638"
         y="301.32114"
         style="stroke-width:0.26458332" /></text>
    <g
       style="fill:#ffffff"
       id="g3864"
       transform="matrix(0.62631836,0,0,0.62631836,-0.20670572,273.12549)">
      <path
         id="path3850"
         d="M 4,14 H 8 V 10 H 4 Z m 0,5 H 8 V 15 H 4 Z M 4,9 H 8 V 5 H 4 Z m 5,5 H 21 V 10 H 9 Z m 0,5 H 21 V 15 H 9 Z M 9,5 V 9 H 21 V 5 Z"
         inkscape:connector-curvature="0" />
      <path
         id="path3852"
         d="M 0,0 H 24 V 24 H 0 Z"
         inkscape:connector-curvature="0"
         style="fill:none" />
    </g>
    <g
       transform="matrix(0.18811952,0,0,0.18811952,13.439382,278.47536)"
       id="g3886"
       style="fill:#ffffff">
      <path
         style="fill:none"
         inkscape:connector-curvature="0"
         d="M 0,0 H 24 V 24 H 0 Z"
         id="path3882" />
      <path
         inkscape:connector-curvature="0"
         d="M 12,4 10.59,5.41 16.17,11 H 4 v 2 H 16.17 L 10.59,18.59 12,20 20,12 Z"
         id="path3884" />
    </g>
    <g
       style="fill:#ffffff"
       id="g3911"
       transform="matrix(0.18811952,0,0,0.18811952,24.551889,278.47536)">
      <path
         id="path3907"
         d="M 0,0 H 24 V 24 H 0 Z"
         inkscape:connector-curvature="0"
         style="fill:none" />
      <path
         id="path3909"
         d="M 12,4 10.59,5.41 16.17,11 H 4 v 2 H 16.17 L 10.59,18.59 12,20 20,12 Z"
         inkscape:connector-curvature="0" />
    </g>
    <g
       style="fill:#ffffff"
       id="g3927"
       transform="matrix(0.52916667,0,0,0.52916667,28.53759,274.52357)">
      <path
         id="path3913"
         d="M 0,0 H 24 V 24 H 0 Z"
         inkscape:connector-curvature="0"
         style="fill:none" />
      <path
         id="path3915"
         d="m 20,18 c 1.1,0 1.99,-0.9 1.99,-2 L 22,6 C 22,4.9 21.1,4 20,4 H 4 C 2.9,4 2,4.9 2,6 v 10 c 0,1.1 0.9,2 2,2 H 0 v 2 H 24 V 18 Z M 4,6 H 20 V 16 H 4 Z"
         inkscape:connector-curvature="0" />
    </g>
    <g
       style="fill:#ffffff"
       id="g3962"
       transform="matrix(0.26458333,0,0,0.26458333,31.712591,277.1694)">
      <path
         id="path3948"
         d="M 0,0 H 24 V 24 H 0 Z"
         inkscape:connector-curvature="0"
         style="fill:none" />
      <path
         id="path3950"
         d="M 9,16.2 4.8,12 3.4,13.4 9,19 21,7 19.6,5.6 Z"
         inkscape:connector-curvature="0" />
    </g>
  </g>
</svg>
